<svg width="32" height="32" viewBox="0 0 32 32" fill="none" xmlns="http://www.w3.org/2000/svg">
  <rect width="32" height="32" rx="6" fill="#000000"/>
  <path d="M9 11C9 9.89543 9.89543 9 11 9H13.28C13.6598 9 13.9953 9.22937 14.1277 9.57867L15.1567 12.2567C15.3097 12.6607 15.156 13.1203 14.7857 13.379L13.271 14.379C14.0103 15.5853 14.9937 16.5687 16.2 17.308L17.2 15.7933C17.4587 15.423 17.9183 15.2693 18.3223 15.4223L21.0003 16.4513C21.3496 16.5837 21.579 16.9192 21.579 17.299V19.579C21.579 20.6836 20.6836 21.579 19.579 21.579H19.079C13.5562 21.579 9.579 17.6018 9.579 12.079V11.579C9.579 11.2592 9.579 11 9 11Z" 
        stroke="white" 
        stroke-width="1.5" 
        stroke-linecap="round" 
        stroke-linejoin="round" 
        fill="none"/>
</svg>
