<?xml version="1.0" standalone="no"?>
<!DOCTYPE svg PUBLIC "-//W3C//DTD SVG 20010904//EN"
 "http://www.w3.org/TR/2001/REC-SVG-20010904/DTD/svg10.dtd">
<svg version="1.0" xmlns="http://www.w3.org/2000/svg"
 width="1024.000000pt" height="1024.000000pt" viewBox="0 0 1024.000000 1024.000000"
 preserveAspectRatio="xMidYMid meet">

<g transform="translate(0.000000,1024.000000) scale(0.100000,-0.100000)"
fill="#000000" stroke="none">
<path d="M2410 9339 c-319 -41 -643 -174 -904 -372 -95 -71 -262 -236 -328
-322 -183 -241 -299 -492 -366 -790 l-27 -120 -3 -2540 c-2 -1898 0 -2567 8
-2645 24 -208 99 -457 196 -645 282 -547 840 -937 1441 -1005 70 -8 866 -10
2763 -8 l2665 3 109 23 c764 162 1333 737 1488 1503 l23 114 0 2570 c0 2463
-1 2574 -19 2675 -39 223 -121 454 -225 635 -86 149 -161 245 -301 385 -103
104 -164 155 -259 219 -256 171 -506 266 -816 312 -126 18 -217 19 -2755 18
-1444 -1 -2654 -5 -2690 -10z m3000 -1753 c681 -81 1266 -371 1740 -862 246
-255 506 -612 652 -894 36 -69 39 -81 36 -140 -7 -123 2 -112 -628 -715 -670
-641 -649 -623 -750 -632 -110 -10 -193 38 -241 142 -33 69 -38 135 -14 193
11 24 145 166 404 427 214 214 396 404 405 422 24 47 20 112 -9 166 -160 301
-578 743 -877 925 -216 133 -449 217 -703 256 -261 40 -698 46 -752 11 -36
-24 -63 -75 -63 -119 0 -35 43 -250 230 -1141 167 -799 178 -872 141 -943 -40
-78 -97 -112 -187 -112 -65 0 -108 16 -158 60 -69 61 -57 19 -237 870 -50 234
-113 531 -140 660 -89 419 -219 1073 -219 1101 0 84 76 193 165 236 92 45 338
88 615 107 108 7 467 -4 590 -18z m-2278 -295 c26 -13 65 -40 87 -61 81 -79
236 -414 354 -765 65 -193 71 -217 71 -295 1 -73 -3 -92 -26 -135 -36 -69 -99
-124 -192 -170 -134 -65 -178 -131 -156 -232 41 -179 250 -548 468 -823 103
-129 394 -417 522 -517 214 -165 441 -293 533 -300 85 -7 129 22 204 136 139
212 191 230 466 170 244 -53 717 -203 906 -286 127 -55 200 -155 187 -255 -22
-163 -351 -685 -513 -813 -160 -126 -313 -153 -599 -105 -567 95 -1171 362
-1669 739 -616 465 -1150 1202 -1428 1972 -128 352 -210 714 -237 1045 -18
210 16 321 131 434 95 94 300 187 564 256 155 41 248 42 327 5z m2443 -831
c86 -14 192 -69 249 -130 155 -166 157 -412 4 -576 -102 -109 -246 -161 -378
-136 -227 42 -369 220 -358 450 5 112 44 196 127 275 65 63 117 92 199 111 71
18 83 18 157 6z m749 -772 c55 -17 129 -87 156 -150 96 -220 -113 -448 -341
-373 -73 25 -149 101 -174 174 -53 160 37 320 202 361 41 10 97 6 157 -12z
m-716 -402 c122 -63 174 -215 113 -333 -118 -230 -464 -147 -464 112 0 95 50
176 135 220 45 23 62 26 118 22 36 -2 80 -12 98 -21z"/>
</g>
</svg>
