<svg xmlns="http://www.w3.org/2000/svg" width="1024" height="1024" viewBox="0 0 1024 1024">
<g>
<path d="M 549.13 745.42 C510.64,739.82 466.17,724.48 428.84,703.93 C405.79,691.25 378.67,672.42 360.00,656.14 C324.51,625.19 286.90,579.06 262.54,536.59 C232.19,483.68 209.81,415.20 204.76,359.76 C201.95,328.92 209.54,315.10 236.50,301.96 C259.00,291.00 283.47,284.39 298.47,285.21 C314.63,286.10 320.80,292.14 335.07,321.00 C346.67,344.48 361.99,385.30 365.07,400.97 C368.67,419.23 361.23,432.01 341.57,441.39 C327.78,447.97 324.40,453.34 326.82,464.87 C329.01,475.32 344.98,505.55 358.32,524.50 C388.24,567.02 430.20,605.41 465.76,622.81 C475.33,627.49 477.90,628.33 482.85,628.40 C487.81,628.46 489.25,628.04 492.48,625.58 C494.57,623.99 498.35,619.76 500.89,616.18 C512.07,600.41 514.87,598.53 527.00,598.63 C543.84,598.78 597.20,613.69 636.00,629.10 C646.54,633.29 653.44,639.37 654.57,645.50 C655.88,652.53 653.62,661.20 647.02,674.46 C635.99,696.62 621.53,716.82 607.32,729.91 C590.94,745.00 575.15,749.21 549.13,745.42 ZM 636.59 592.49 C624.03,587.69 617.53,573.25 622.53,561.26 C623.55,558.84 636.43,545.14 660.36,521.04 C704.49,476.59 705.51,475.07 699.47,462.11 C696.61,455.96 685.91,439.75 675.97,426.48 C635.24,372.15 581.52,341.54 517.00,335.91 C502.36,334.63 479.96,335.22 473.50,337.05 C465.54,339.31 461.21,346.23 462.39,354.81 C462.73,357.32 464.79,367.72 466.97,377.93 C470.93,396.51 473.74,409.45 493.45,499.90 C499.25,526.52 504.00,549.47 503.99,550.90 C503.96,565.84 488.90,575.20 475.00,568.92 C469.54,566.46 463.52,560.83 460.89,555.74 C459.83,553.68 457.37,544.90 455.42,536.24 C441.54,474.37 432.21,432.18 427.94,412.00 C425.20,399.08 422.32,385.58 421.54,382.00 C413.47,345.31 407.92,316.76 405.97,301.84 C405.02,294.60 405.09,292.20 406.39,287.11 C408.85,277.51 413.86,271.20 422.59,266.71 C432.04,261.84 465.94,257.95 498.80,257.96 C532.83,257.97 555.26,260.58 582.50,267.68 C617.16,276.72 657.82,297.92 686.00,321.64 C718.30,348.84 752.98,390.66 774.73,428.66 C789.52,454.50 789.54,464.75 774.82,480.02 C771.89,483.05 754.01,500.38 735.07,518.52 C716.13,536.66 692.10,559.68 681.67,569.67 C670.93,579.96 660.55,589.02 657.74,590.55 C651.63,593.87 642.42,594.72 636.59,592.49 ZM 544.99 547.12 C534.05,543.54 527.00,534.29 527.00,523.50 C527.00,514.13 533.27,504.59 541.47,501.46 C552.33,497.31 565.43,501.67 571.47,511.45 C574.11,515.72 574.50,517.26 574.46,523.43 C574.41,533.59 570.16,540.79 561.62,545.18 C557.31,547.39 548.85,548.39 544.99,547.12 ZM 611.22 512.42 C589.92,501.81 592.96,470.04 615.91,463.33 C620.55,461.97 622.60,461.88 627.94,462.79 C649.52,466.46 657.54,492.80 641.75,508.13 C634.32,515.33 620.86,517.23 611.22,512.42 ZM 545.25 466.48 C531.94,463.59 520.34,454.51 514.26,442.21 C510.63,434.87 510.50,434.24 510.50,424.05 C510.50,414.33 510.74,412.99 513.59,407.00 C520.08,393.32 531.75,384.37 546.28,381.93 C564.81,378.81 584.80,389.78 593.30,407.74 C596.23,413.94 596.50,415.33 596.50,424.50 C596.50,433.78 596.26,435.02 593.12,441.72 C587.12,454.51 574.53,464.43 561.04,466.99 C554.50,468.23 553.10,468.19 545.25,466.48 Z" fill="rgba(0,0,0,1)"/>
</g>
</svg>